<?xml version="1.0" standalone="yes"?>
<svg xmlns="http://www.w3.org/2000/svg" width="1563" height="1563">
<path style="fill:#010101; stroke:none;" d="M0 0L0 1563L1563 1563L1563 0L0 0z"/>
<path style="fill:#c95557; stroke:none;" d="M731 593L731 599C719.685 599 717 600.354 717 612L726 612L726 637L717 637L719 652L731 652C733.372 659.144 737.652 652.612 742 652L750 649L752 615L750.107 601.943L738 599C737.619 594.11 735.724 593.155 731 593z"/>
<path style="fill:#7391b7; stroke:none;" d="M657 596L658 597L657 596z"/>
<path style="fill:#677792; stroke:none;" d="M719 652C716.291 638.803 716.999 625.503 717 612C717 608.742 719.39 600.122 717.843 597.603C716.007 594.614 707.959 596 705 596L670 596C666.849 596 660.261 594.784 658.028 597.603C654.538 602.009 657 615.532 657 621C657 627.786 653.763 646.012 658.028 651.397C660.565 654.599 669.368 653 673 653C687.646 653 704.728 655.398 719 652z"/>
<path style="fill:#7391b7; stroke:none;" d="M661.603 601.028C657.645 604.163 660 618.33 660 623C660 628.657 657.427 642.85 661.028 647.397C663.261 650.216 669.849 649 673 649L702 649C705.122 649 710.779 650.046 713.397 647.972C717.355 644.837 715 630.67 715 626C715 620.343 717.573 606.15 713.972 601.603C711.739 598.784 705.151 600 702 600L673 600C669.878 600 664.221 598.954 661.603 601.028z"/>
<path style="fill:#b6b3c5; stroke:none;" d="M662.603 602.028L661 623L662.028 646.397L673 648L701 648L712.397 646.972L714 626L712.972 602.603L702 601L674 601L662.603 602.028M733 606L733 607C746.667 610.953 745.843 640.332 731 642L731 643C735.955 643 757.518 639.242 746 631L746 618C756.358 610.581 738.166 606 733 606z"/>
<path style="fill:#677792; stroke:none;" d="M731 607L730 608L730 610L731 611L736 609L731 607z"/>
<path style="fill:#7391b7; stroke:none;" d="M733 607L733 608L736 608L736 609C729.977 612.332 731.221 635.727 735 641L731 641C736.716 643.212 739.852 637.931 741.377 633C743.865 624.955 743.463 608.664 733 607z"/>
<path style="fill:#677792; stroke:none;" d="M737.333 611.667L737.667 612.333L737.333 611.667z"/>
<path style="fill:#b6b3c5; stroke:none;" d="M717 612L717 637L726 637L726 612L717 612M734 612L734 637L735 637C735.539 627.009 738.532 621.988 734 612z"/>
<path style="fill:#677792; stroke:none;" d="M740 620L740 629L741 629L740 620M737.333 636.667L737.667 637.333L737.333 636.667M730 641L735 641C732.85 638.925 731.795 638.44 730 641z"/>
</svg>
