<svg version="1.1" xmlns="http://www.w3.org/2000/svg" xmlns:xlink="http://www.w3.org/1999/xlink" width="30px" height="30px" viewBox="0,0,256,256"><g transform="translate(256,281.6) rotate(180) skewX(0)" fill="none" fill-rule="nonzero" stroke="none" stroke-width="1" stroke-linecap="butt" stroke-linejoin="miter" stroke-miterlimit="10" stroke-dasharray="" stroke-dashoffset="0" font-family="none" font-weight="none" font-size="none" text-anchor="none" style="mix-blend-mode: normal"><g transform="scale(8.53333,8.53333)">
<path d="M28.953,11.796c-0.258,-1.241 -1.345,-2.13 -2.61,-2.13h-7.801v13.875h7.801c1.265,0 2.351,-0.889 2.61,-2.13c0.257,-1.235 0.506,-2.919 0.506,-4.808c-0.001,-1.888 -0.249,-3.571 -0.506,-4.807z M24.422,21.5h-7.137v-10h7.136c0.346,0 0.667,0.157 0.801,0.399c1.714,3.093 1.693,6.16 0,9.202c-0.134,0.243 -0.455,0.399 -0.8,0.399z M24.422,22h-7.637v-11h7.636c0.53,0 1.017,0.258 1.238,0.656c1.785,3.221 1.784,6.48 0,9.688c-0.221,0.399 -0.707,0.656 -1.237,0.656zM17.785,21h6.637c0.194,0 0.332,-0.084 0.364,-0.142c1.627,-2.927 1.627,-5.778 -0.001,-8.717c-0.031,-0.056 -0.17,-0.141 -0.364,-0.141h-6.636z M28.718,20.932c0.119,-0.554 0.236,-1.207 0.325,-1.932h-0.87c-0.257,0 -0.479,0.161 -0.535,0.387l-0.495,2.011c-0.076,0.309 0.184,0.602 0.534,0.602h0.494c0.263,-0.301 0.459,-0.66 0.547,-1.068z M28.709,12.068c0.118,0.554 0.233,1.207 0.321,1.932h-0.858c-0.253,0 -0.472,-0.161 -0.527,-0.387l-0.488,-2.011c-0.077,-0.309 0.18,-0.602 0.526,-0.602h0.487c0.258,0.301 0.452,0.66 0.539,1.068z M26.349,24.042h-8.391v-15h8.391c1.506,0 2.822,1.071 3.129,2.547v0c0.346,1.663 0.522,3.33 0.522,4.953c0,1.624 -0.176,3.29 -0.522,4.952c-0.309,1.477 -1.624,2.548 -3.129,2.548zM18.958,23.042h7.391c1.034,0 1.938,-0.736 2.15,-1.752c0.332,-1.595 0.501,-3.192 0.501,-4.748c0,-1.555 -0.169,-3.153 -0.501,-4.75v0c-0.212,-1.014 -1.116,-1.75 -2.15,-1.75h-7.391z M22.459,21.5h-3.959v-10h3.959c0.291,0 0.558,0.275 0.646,0.687c0.611,2.875 0.611,5.751 0,8.626c-0.088,0.412 -0.355,0.687 -0.646,0.687z M22.459,22h-4.459v-11h4.459c0.54,0 0.996,0.435 1.135,1.082c0.623,2.932 0.623,5.904 0,8.835c-0.139,0.648 -0.595,1.083 -1.135,1.083zM22.451,21.001v0zM19,21h3.454c0.031,-0.013 0.12,-0.1 0.161,-0.291c0.594,-2.793 0.594,-5.625 0,-8.419c-0.042,-0.196 -0.135,-0.282 -0.164,-0.291l-3.451,0.001z M19,25h-19v-16.92h19zM1,24h17v-14.92h-17z" fill="#f78f8f"></path>

<rect x="0.5" y="8.58" width="18" height="15.92" fill="#b0c1d4"></rect><path d="M19,25h-19v-16.92h19zM1,24h17v-14.92h-17z" fill="#66798f"></path><g fill="#c74343"><rect x="24" y="7" width="1" height="2.417"></rect></g><g fill="#c74343"><rect x="24" y="24" width="1" height="2"></rect></g></g></g></svg>